HIERARCHY
ROOT Hips
{
	OFFSET	0.00	0.00	0.00
	CHANNELS 6 Xposition Yposition Zposition Zrotation Xrotation Yrotation
	JOINT Spine
	{
		OFFSET	 0.00	0.01	 0.00
		CHANNELS 3 Zrotation Xrotation Yrotation
		JOINT Spine1
		{
			OFFSET	 0.00	 2.45913012437421	 0.00
			CHANNELS 3 Zrotation Xrotation Yrotation
            JOINT Neck
            {
                OFFSET	 0.00	 2.48462964506057	 0.00
                CHANNELS 3 Zrotation Xrotation Yrotation
                JOINT Head
                {
                    OFFSET	 0.00	 0.927524780924562	 0.00
                    CHANNELS 3 Zrotation Xrotation Yrotation
                    End Site 
                    {
                        OFFSET	 0.00	 1.14999962169752	 0.00
                    }
                }
            }
			JOINT LeftShoulder
			{
				OFFSET	 0.00	 2.48462964506057	 0.00
				CHANNELS 3 Zrotation Xrotation Yrotation
				JOINT LeftUpArm
				{
					OFFSET	 0.00	 1.24881979654096	 0.00
					CHANNELS 3 Zrotation Xrotation Yrotation
					JOINT LeftForeArm
					{
						OFFSET	 0.00	2.59758046908119	 0.00
						CHANNELS 3 Zrotation Xrotation Yrotation
						JOINT LeftHand
						{
							OFFSET	 0.00	2.45542024364365	 0.00
							CHANNELS 3 Zrotation Xrotation Yrotation
							JOINT LeftHandThumb 
							{
								OFFSET	 0.00	0.00	 0.00
								CHANNELS 3 Zrotation Xrotation Yrotation
								End Site
								{
									OFFSET	 0.00	0.00	1.00000003353624
								}
							}
							JOINT L_Wrist_End 
							{
								OFFSET	 0.00	0.99999967115358	 0.00
								CHANNELS 3 Zrotation Xrotation Yrotation
								End Site 
								{
									OFFSET	 0.00	 0.00	 0.00
								}
							}
						}
					}
				}
			}
			JOINT RightShoulder
			{
				OFFSET	 0.00	 2.48462964506057	 0.00
				CHANNELS 3 Zrotation Xrotation Yrotation
				JOINT RightUpArm
				{
					OFFSET	 0.00	 1.24881979654096	 0.00
					CHANNELS 3 Zrotation Xrotation Yrotation
					JOINT RightForeArm
					{
						OFFSET	 0.00	2.59758046908119	 0.00
						CHANNELS 3 Zrotation Xrotation Yrotation
						JOINT RightHand
						{
							OFFSET	 0.00	2.45542024364365	 0.00
							CHANNELS 3 Zrotation Xrotation Yrotation
							JOINT RightHandThumb 
							{
								OFFSET	 0.00	0.00	 0.00
								CHANNELS 3 Zrotation Xrotation Yrotation
								End Site
								{
									OFFSET	 0.00	0.00	1.00000003353624
								}
							}
							JOINT R_Wrist_End 
							{
								OFFSET	 0.00	0.99999967115358	 0.00
								CHANNELS 3 Zrotation Xrotation Yrotation
								End Site 
								{
									OFFSET	 0.00	 0.00	 0.00
								}
							}
						}
					}
				}
			}
		}
	}
	JOINT LeftUpLeg
	{
		OFFSET	 1.2719394002717	 0.00	 0.00
		CHANNELS 3 Zrotation Xrotation Yrotation
		JOINT LeftLowLeg
		{
			OFFSET	 0.00	-4.3429100912261	 0.00
			CHANNELS 3 Zrotation Xrotation Yrotation
			JOINT LeftFoot
			{
				OFFSET	 0.00	-4.48767017425826	 0.00
				CHANNELS 3 Zrotation Xrotation Yrotation
				JOINT LeftToeBase
                {
                    OFFSET	 0.00	0.00	 1.51507020887566
                    CHANNELS 3 Zrotation Xrotation Yrotation
                    End Site 
                    {
                        OFFSET	 0.00	0.00	 0.75000010571191
                    }
                }
			}
		}
	}
	JOINT RightUpLeg
	{
		OFFSET	 -1.2719393604653	 0.00	 0.00
		CHANNELS 3 Zrotation Xrotation Yrotation
		JOINT RightLowLeg
		{
			OFFSET	 0.00	-4.3429100912261	 0.00
			CHANNELS 3 Zrotation Xrotation Yrotation
			JOINT RightFoot
			{
				OFFSET	 0.00	-4.48767017425826	 0.00
				CHANNELS 3 Zrotation Xrotation Yrotation
				JOINT RightToeBase
                {
                    OFFSET	 0.00	0.00	 1.51507020887566
                    CHANNELS 3 Zrotation Xrotation Yrotation
                    End Site 
                    {
                        OFFSET	 0.00	0.00	 0.749999965609858
                    }
                }   
			}
		}
	}
}
MOTION 
Frames:	16 
Frame Time: 0.02 
 0.0682135009765625 0.16120199203491212 9.368829956054688 -162.614 74.2782 -195.299 5.76877 -27.2258 0.139734 -3.43148 10.2557 1.16338 16.4778 33.8368 -0.46009 -37.8821 -74.0847 1416.16 -119.577896 3.22014 14.2916 -37.2386 22.0073 9.30471 0.0 33.918 0.0 16.1814 -6.89372 21.3397 0.0 0.0 0.0 0.0 0.0 0.0 114.8952 -6.17867 -3.35538 27.8368 -1.33431 -400.653 0.0 63.7799 0.0 7.13916 -11.2346 -40.0141 0.0 0.0 0.0 0.0 0.0 0.0 1.7715 -10.7858 -24.6779 0.0 5.91617 0.0 -0.394138 -4.1129 20.6773 0.0 -10.929131 0.0 8.13721 -9.56853 388.757 0.0 5.19615 0.0 4.03272 1.5578003 -31.9502 0.0 -19.52186 0.0 
  0.07290180206298828 0.16524700164794923 9.370280151367188 -162.388 74.3895 -195.436 5.92839 -27.1702 0.244014 -3.69013 10.3439 1.11163 16.8647 33.9482 -0.95204 -37.6455 -73.8844 1416.21 -119.4578 3.20753 14.3833 -37.0195 22.6922 8.88882 0.0 35.3102 0.0 16.522 -6.26252 21.8142 0.0 0.0 0.0 0.0 0.0 0.0 114.5263 -6.1317 -3.17841 27.1732 -2.22899 -401.041 0.0 65.6711 0.0 10.9024 -12.3221 -37.8324 0.0 0.0 0.0 0.0 0.0 0.0 1.7543 -10.7117 -24.8125 0.0 5.93213 0.0 -0.415492 -4.0643005 20.693 0.0 -10.93814 0.0 8.13381 -9.4953 388.662 0.0 5.24675 0.0 4.07991 1.5642004 -31.95 0.0 -19.53675 0.0 
  0.07747129917144775 0.17010700225830078 9.371669921875 -162.128 74.519 -195.646 6.06889 -27.0765 0.335792 -3.85223 10.4601 1.07191 17.1583 34.0571 -1.40425 -37.8258 -73.7218 1415.83 -119.3979 3.24477 14.3744 -36.8629 23.1051 8.55979 0.0 36.5915 0.0 16.7414 -5.84335 22.3313 0.0 0.0 0.0 0.0 0.0 0.0 114.2451 -6.15116 -3.0986 26.6473 -3.03723 -401.141 0.0 66.8239 0.0 14.9263 -12.2478 -34.1235 0.0 0.0 0.0 0.0 0.0 0.0 1.73648 -10.6272 -24.9898 0.0 5.9821 0.0 -0.444278 -4.0485 20.7868 0.0 -10.955959 0.0 8.12717 -9.39785 388.328 0.0 5.26062 0.0 4.05879 1.6455002 -31.7301 0.0 -19.54164 0.0 
  0.08142640113830567 0.174064998626709 9.372540283203126 -161.908 74.6163 -195.843 6.15511 -27.0136 0.38511 -3.9097 10.577 1.04692 17.4046 34.174 -1.84319 -38.1069 -73.5267 1415.43 -119.3521 3.2808 14.4 -36.781 23.3764 8.30319 0.0 37.6582 0.0 16.9921 -5.64716 22.0096 0.0 0.0 0.0 0.0 0.0 0.0 114.0096 -6.22782 -3.01693 26.323 -3.85839 -401.217 0.0 67.2573 0.0 17.8628 -10.9591 -28.2438 0.0 0.0 0.0 0.0 0.0 0.0 1.72125 -10.5694 -25.1016 0.0 6.03913 0.0 -0.448493 -4.0478992 20.8639 0.0 -10.95013 0.0 8.12264 -9.32111 388.028 0.0 5.25841 0.0 4.0114 1.7337999 -31.5244 0.0 -19.57125 0.0 
  0.08485329627990723 0.17814699172973633 9.37301025390625 -161.779 74.683 -195.971 6.20228 -26.944 0.383795 -3.90598 10.6493 1.00051 17.6134 34.3338 -2.26859 -38.6728 -73.3481 1414.87 -119.3189 3.28174 14.3983 -36.7416 23.4434 8.11269 0.0 38.4991 0.0 17.0878 -5.51708 22.4251 0.0 0.0 0.0 0.0 0.0 0.0 113.838104 -6.32871 -3.03347 26.1071 -4.50526 -401.397 0.0 67.1552 0.0 19.4119 -8.8795 -21.186 0.0 0.0 0.0 0.0 0.0 0.0 1.69929 -10.5406 -25.1736 0.0 6.08659 0.0 -0.42632 -4.0375004 20.939 0.0 -10.94471 0.0 8.11464 -9.28194 387.869 0.0 5.26921 0.0 4.01592 1.7643995 -31.3949 0.0 -19.55436 0.0 
  0.08780059814453126 0.18097999572753906 9.37343994140625 -161.593 74.7921 -196.16 6.16612 -26.8642 0.26324 -3.74004 10.7854 0.912451 17.6299 34.5278 -2.50989 -39.4463 -73.1692 1414.16 -119.3427 3.24589 14.3513 -36.7362 23.3381 8.03838 0.0 39.103 0.0 17.0557 -5.50686 21.4025 0.0 0.0 0.0 0.0 0.0 0.0 113.6967 -6.36917 -3.06481 25.9263 -5.20842 -401.746 0.0 66.9725 0.0 19.0545 -6.70183 -14.7104 0.0 0.0 0.0 0.0 0.0 0.0 1.68533 -10.4603 -25.1729 0.0 6.13461 0.0 -0.395189 -4.0305996 20.953 0.0 -10.93522 0.0 8.1071 -9.18049 387.659 0.0 5.25627 0.0 3.98519 1.8209 -31.2405 0.0 -19.537 0.0 
  0.09045100212097168 0.18247800827026367 9.373690185546875 -161.409 74.8817 -196.359 6.12394 -26.8382 0.120158 -3.51695 10.9688 0.817473 17.4978 34.7993 -2.61624 -40.2932 -72.9308 1413.37 -119.349 3.21774 14.381 -36.7737 23.1355 8.01492 0.0 39.4317 0.0 17.0468 -5.55215 21.3502 0.0 0.0 0.0 0.0 0.0 0.0 113.6397 -6.48637 -3.06341 25.6803 -5.95407 -402.394 0.0 66.9911 0.0 16.6178 -5.13094 -9.30933 0.0 0.0 0.0 0.0 0.0 0.0 1.68564 -10.3718 -25.209 0.0 6.14998 0.0 -0.354321 -4.021799 21.0194 0.0 -10.951429 0.0 8.10381 -9.08926 387.51 0.0 5.23978 0.0 3.99526 1.8634005 -31.1001 0.0 -19.56874 0.0 
  0.0929069995880127 0.18384599685668945 9.373820190429688 -161.287 74.9203 -196.522 6.08112 -26.8571 -0.0382907 -3.24474 11.1186 0.710312 17.4402 35.1212 -2.85764 -41.1213 -72.587 1412.77 -119.3675 3.18729 14.4567 -36.8235 22.8251 8.03471 0.0 39.4248 0.0 16.9828 -5.662 22.0534 0.0 0.0 0.0 0.0 0.0 0.0 113.6036 -6.59446 -3.06917 25.4563 -6.80936 -403.249 0.0 67.1741 0.0 12.8713 -4.03882 -5.43739 0.0 0.0 0.0 0.0 0.0 0.0 1.69713 -10.3284 -25.1775 0.0 6.15196 0.0 -0.375689 -4.0406 21.0113 0.0 -10.9635105 0.0 8.1068 -9.04448 387.449 0.0 5.21465 0.0 3.98526 1.9152002 -31.0275 0.0 -19.57929 0.0 
  0.09570090293884277 0.1849449920654297 9.373800048828125 -161.243 74.9209 -196.629 6.06606 -26.9316 -0.187564 -3.01113 11.305 0.590818 17.4243 35.4749 -3.08647 -41.7847 -72.2528 1412.45 -119.325195 3.15288 14.318 -36.9928 22.2697 8.26147 0.0 39.1863 0.0 16.5029 -5.98372 21.6767 0.0 0.0 0.0 0.0 0.0 0.0 113.5768 -6.76167 -3.11131 25.3769 -7.59287 -403.881 0.0 67.37 0.0 9.48135 -3.5119 -2.51098 0.0 0.0 0.0 0.0 0.0 0.0 1.70519 -10.3126 -25.1457 0.0 6.14026 0.0 -0.261095 -3.9890995 21.0768 0.0 -11.03712 0.0 8.10473 -9.05198 387.386 0.0 5.21675 0.0 4.00692 1.9259996 -30.8962 0.0 -19.57807 0.0 
  0.09870659828186035 0.1858090019226074 9.373720092773437 -161.307 74.8889 -196.666 6.0972 -27.0594 -0.3271 -2.82549 11.5354 0.440707 17.43 35.8156 -3.35795 -42.1766 -71.8183 1412.58 -119.3433 3.08798 14.2884 -37.0341 21.6744 8.2936 0.0 38.7171 0.0 15.7105 -6.4627 21.8047 0.0 0.0 0.0 0.0 0.0 0.0 113.505 -6.94469 -2.89838 25.4825 -8.46332 -404.499 0.0 67.5742 0.0 6.4485 -3.71523 -0.359383 0.0 0.0 0.0 0.0 0.0 0.0 1.70964 -10.307 -25.1255 0.0 6.07938 0.0 -0.350397 -4.0436993 21.1075 0.0 -10.92904 0.0 8.09272 -9.08933 387.459 0.0 5.20971 0.0 4.01997 1.9364004 -30.8676 0.0 -19.56061 0.0 
  0.10216300010681152 0.18715999603271485 9.37344970703125 -161.45 74.8566 -196.651 6.19984 -27.1458 -0.41708 -2.73872 11.7087 0.261968 17.4675 36.1517 -3.64581 -42.3018 -71.3342 1413.01 -119.361404 3.01857 14.3904 -36.985 21.0006 8.12027 0.0 38.0365 0.0 14.3975 -6.68707 22.1521 0.0 0.0 0.0 0.0 0.0 0.0 113.4324 -7.10557 -2.63505 25.7603 -9.50808 -404.76 0.0 67.8786 0.0 4.16863 -4.73574 3.43411 0.0 0.0 0.0 0.0 0.0 0.0 1.69504 -10.3149 -25.0525 0.0 6.03873 0.0 -0.362902 -4.040001 21.1288 0.0 -10.964029 0.0 8.06811 -9.14349 387.574 0.0 5.22006 0.0 4.04887 1.9193001 -30.8513 0.0 -19.54803 0.0 
  0.10604299545288086 0.18887699127197266 9.37302001953125 -161.617 74.8441 -196.651 6.3271 -27.1646 -0.505721 -2.64376 11.8153 0.0511022 17.3932 36.5173 -3.80251 -42.2107 -70.7706 1413.71 -119.4104 2.90313 14.4438 -36.9448 20.2335 8.01584 0.0 37.0837 0.0 13.1261 -6.86339 22.4368 0.0 0.0 0.0 0.0 0.0 0.0 113.327896 -7.25296 -2.60321 26.1103 -10.5328 -404.59 0.0 68.2796 0.0 2.43697 -5.74699 7.10654 0.0 0.0 0.0 0.0 0.0 0.0 1.67307 -10.3098 -24.9193 0.0 6.01318 0.0 -0.406636 -4.0716 21.1074 0.0 -10.92395 0.0 8.04664 -9.19717 387.847 0.0 5.26852 0.0 4.10327 1.8662004 -30.9355 0.0 -19.53403 0.0 
  0.10971699714660645 0.19024099349975587 9.372849731445312 -161.7 74.8467 -196.757 6.49518 -27.1439 -0.587339 -2.52264 11.9049 -0.193354 17.2787 36.873 -3.9546 -42.1928 -70.1647 1414.47 -119.4388 2.75672 14.5278 -36.9587 19.4537 7.89576 0.0 35.8453 0.0 11.9325 -7.04117 23.1346 0.0 0.0 0.0 0.0 0.0 0.0 113.2266 -7.38844 -2.63401 26.3818 -11.5934 -404.336 0.0 68.9057 0.0 1.49502 -7.04445 11.5226 0.0 0.0 0.0 0.0 0.0 0.0 1.67187 -10.2885 -24.7519 0.0 6.01154 0.0 -0.437069 -4.1068 21.0753 0.0 -10.948111 0.0 8.04701 -9.22893 388.007 0.0 5.31073 0.0 4.11668 1.8709002 -30.9308 0.0 -19.521309 0.0 
  0.11479499816894531 0.19213100433349609 9.372620239257813 -161.815 74.8324 -196.847 6.73404 -26.9301 -0.642788 -2.48098 11.6109 -0.523856 17.2411 37.5398 -4.06196 -42.4624 -69.6502 1414.97 -119.4633 2.45614 14.6362 -37.0061 18.5976 7.89668 0.0 34.3232 0.0 10.9656 -7.17851 23.2835 0.0 0.0 0.0 0.0 0.0 0.0 113.203 -7.64297 -2.72943 26.453 -12.5192 -404.325 0.0 69.5924 0.0 -0.355053 -8.02167 16.8275 0.0 0.0 0.0 0.0 0.0 0.0 1.65752 -10.2791 -24.6901 0.0 6.00407 0.0 -0.486579 -4.1590004 21.154 0.0 -10.94845 0.0 8.03876 -9.29725 388.116 0.0 5.378 0.0 4.1237 1.8674002 -30.8475 0.0 -19.51293 0.0 
  0.12191300392150879 0.1987070083618164 9.372509765625 -162.05 74.6542 -196.745 6.95433 -27.1256 -0.722964 -2.40136 11.873 -0.788448 17.2272 37.8519 -4.25835 -42.5037 -69.1689 1415.66 -119.423996 2.43015 14.4802 -37.2182 17.6853 7.84404 0.0 32.7309 0.0 10.1823 -7.68766 23.1323 0.0 0.0 0.0 0.0 0.0 0.0 113.0893 -7.9495 -2.46074 26.5111 -13.3094 -404.311 0.0 70.3193 0.0 -1.86515 -7.70366 13.8063 0.0 0.0 0.0 0.0 0.0 0.0 1.60864 -10.5303 -24.7157 0.0 6.10569 0.0 -0.500983 -4.2045994 21.2428 0.0 -10.93056 0.0 8.0246 -9.56833 388.133 0.0 5.46268 0.0 4.2049 1.8360004 -30.6855 0.0 -19.52027 0.0 
  0.12385999679565429 0.19606300354003905 9.373350219726563 -162.394 74.8063 -196.869 7.08831 -27.0362 -0.736776 -2.2754 12.0581 -0.920679 17.1671 38.408 -4.31352 -42.6719 -68.732 1416.03 -119.3751 2.24357 14.562 -37.4143 16.865 7.52611 0.0 30.9891 0.0 9.34037 -8.18679 22.8629 0.0 0.0 0.0 0.0 0.0 0.0 112.9609 -8.19895 -2.34308 26.439 -14.1367 -404.39 0.0 71.1668 0.0 -3.88548 -6.71899 10.7676 0.0 0.0 0.0 0.0 0.0 0.0 1.57675 -10.2447 -24.3308 0.0 5.96461 0.0 -0.475121 -4.1532 21.322 0.0 -10.9833 0.0 7.97886 -9.4904 388.339 0.0 5.5619 0.0 4.16231 1.8736 -30.4958 0.0 -19.53604 0.0 
